<?xml version="1.0" encoding="UTF-8" standalone="no" ?>
<!DOCTYPE svg PUBLIC "-//W3C//DTD SVG 1.1//EN" "http://www.w3.org/Graphics/SVG/1.1/DTD/svg11.dtd">
<svg xmlns="http://www.w3.org/2000/svg" xmlns:xlink="http://www.w3.org/1999/xlink" version="1.1" width="1200" height="1000" viewBox="0 0 1200 1000" xml:space="preserve">
<desc>Created with Fabric.js 5.2.4</desc>
<defs>
</defs>
<rect x="0" y="0" width="100%" height="100%" fill="transparent"></rect>
<g transform="matrix(1 0 0 1 600 500)" id="8aabe4c1-0bf1-43f1-ab15-f69234a5587c"  >
<rect style="stroke: none; stroke-width: 1; stroke-dasharray: none; stroke-linecap: butt; stroke-dashoffset: 0; stroke-linejoin: miter; stroke-miterlimit: 4; fill: rgb(255,255,255); fill-rule: nonzero; opacity: 1; visibility: hidden;" vector-effect="non-scaling-stroke"  x="-600" y="-500" rx="0" ry="0" width="1200" height="1000" />
</g>
<g transform="matrix(Infinity NaN NaN Infinity 0 0)" id="bee7686f-acbb-4421-998b-b07739e9acd7"  >
</g>
<g transform="matrix(9.25 0 0 9.25 600 500)" id="86df6e6b-9bd0-43ce-a422-94942bd05709"  >
<path style="stroke: rgb(0,0,0); stroke-width: 0; stroke-dasharray: none; stroke-linecap: butt; stroke-dashoffset: 0; stroke-linejoin: miter; stroke-miterlimit: 4; fill: rgb(102,252,241); fill-rule: nonzero; opacity: 1;" vector-effect="non-scaling-stroke"  transform=" translate(-61.44, -42.78)" d="M 3.8 0 L 62.48 47.85 L 118.65 0 Z M 0 80.52 L 41.8 38.61 L 0 4.53 L 0 80.53 Z M 46.41 42.37 L 3.31 85.57 L 119.21000000000001 85.57 L 78 42.37 L 64.45 53.94 L 64.45 53.94 C 63.35851290576954 54.85369655119167 61.77521111782899 54.87458443757611 60.660000000000004 53.989999999999995 L 46.41 42.37 Z M 82.53 38.53 L 122.88 80.86 L 122.88 4.16 L 82.53 38.53 Z" stroke-linecap="round" />
</g>
<g transform="matrix(NaN NaN NaN NaN 0 0)"  >
<g style=""   >
</g>
</g>
<g transform="matrix(NaN NaN NaN NaN 0 0)"  >
<g style=""   >
</g>
</g>
</svg>